<?xml version="1.0" standalone="no"?>
<!DOCTYPE svg PUBLIC "-//W3C//DTD SVG 20010904//EN"
 "http://www.w3.org/TR/2001/REC-SVG-20010904/DTD/svg10.dtd">
<svg version="1.0" xmlns="http://www.w3.org/2000/svg"
 width="958.000000pt" height="1280.000000pt" viewBox="0 0 958.000000 1280.000000"
 preserveAspectRatio="xMidYMid meet">
<metadata>
Created by potrace 1.15, written by Peter Selinger 2001-2017
</metadata>
<g transform="translate(0.000000,1280.000000) scale(0.100000,-0.100000)"
fill="#ffffff" stroke="none">
<path d="M8780 12681 c-66 -83 -176 -283 -824 -1486 -412 -764 -753 -1394
-757 -1399 -4 -4 -47 16 -96 47 -91 56 -193 111 -193 103 0 -2 26 -19 58 -36
100 -57 212 -132 212 -142 0 -14 -714 -1338 -721 -1338 -4 0 -9 16 -12 35 -14
84 -87 282 -154 415 -205 409 -537 685 -1003 835 -80 25 -93 27 -210 21 -69
-3 -151 -9 -184 -13 l-59 -6 39 74 c55 107 162 211 279 271 120 61 232 95 395
120 115 17 166 19 345 15 116 -4 243 -11 284 -17 40 -6 75 -9 77 -7 7 6 -129
26 -266 39 -145 13 -452 4 -542 -16 -276 -63 -466 -196 -592 -412 l-41 -72
-84 -17 c-605 -121 -1126 -479 -1321 -907 -93 -207 -119 -465 -69 -681 6 -27
8 -52 3 -56 -5 -5 -38 -16 -74 -25 -239 -64 -426 -172 -513 -296 -73 -105 -96
-255 -61 -399 33 -137 135 -319 268 -479 34 -41 71 -86 84 -102 l23 -28 -33
-7 c-41 -9 -249 -113 -333 -166 -76 -48 -155 -130 -188 -195 -73 -146 -59
-344 38 -548 13 -28 22 -52 20 -54 -5 -5 -196 97 -330 176 -178 106 -313 199
-432 299 -508 423 -966 951 -1285 1483 -92 153 -249 455 -301 579 -20 48 -30
61 -39 54 -7 -6 -52 -40 -100 -77 l-87 -67 66 -92 c401 -555 513 -704 724
-967 199 -249 311 -375 512 -579 317 -320 527 -490 837 -678 173 -104 201
-120 375 -209 l160 -81 65 -84 c77 -101 260 -290 350 -364 124 -102 406 -259
617 -345 46 -18 82 -34 80 -35 -1 -1 -339 1 -751 4 -607 5 -749 4 -754 -7 -2
-7 -2 -15 1 -18 4 -5 369 -48 1665 -197 211 -25 385 -47 388 -50 3 -3 -8 -28
-24 -57 l-30 -52 -892 2 c-846 1 -891 0 -888 -17 3 -17 247 -126 1225 -550
l273 -118 0 -56 0 -56 -157 -51 c-254 -83 -494 -132 -647 -132 l-54 0 -91
-108 -90 -107 67 -5 c104 -9 336 7 456 30 139 27 310 79 426 129 50 22 93 35
96 29 9 -14 -4 -2620 -14 -2738 -7 -81 -15 -120 -37 -168 -72 -160 -291 -266
-595 -290 l-95 -7 -3 -87 -3 -88 871 0 870 0 0 90 0 90 -57 0 c-32 0 -99 7
-149 15 -250 40 -418 134 -485 270 -29 59 -32 76 -40 207 -13 221 -23 1742
-14 2329 l7 527 24 11 c45 20 249 158 372 252 68 52 140 106 160 121 21 15
174 86 342 157 168 71 553 233 855 361 303 128 571 241 598 252 30 13 47 27
47 38 0 16 -35 17 -476 23 -262 3 -478 8 -481 10 -8 9 65 169 117 256 87 147
163 243 290 372 69 69 138 134 153 144 33 21 18 36 139 -138 46 -64 127 -194
180 -287 104 -181 132 -260 175 -485 24 -130 24 -431 0 -543 -34 -156 -86
-283 -164 -402 -220 -335 -631 -540 -1162 -580 -153 -12 -405 -1 -551 24 l-75
12 -77 -40 c-43 -23 -78 -44 -78 -47 0 -16 220 -34 410 -34 274 1 468 28 708
101 548 166 947 511 1095 944 92 270 87 601 -14 908 -33 98 -240 439 -382 627
l-46 60 82 53 c109 69 309 171 427 215 374 142 756 172 1155 91 150 -30 278
-70 470 -145 253 -99 410 -203 596 -396 324 -337 422 -700 292 -1083 -121
-355 -293 -540 -572 -611 -148 -38 -573 -34 -726 6 -221 59 -392 230 -450 450
-24 94 -35 230 -26 330 16 166 70 273 198 394 66 64 103 89 205 140 158 80
165 87 102 97 -76 11 -216 -12 -364 -62 -287 -95 -389 -169 -473 -344 -75
-154 -99 -299 -78 -470 40 -328 234 -607 520 -750 353 -177 805 -130 1236 128
264 158 416 338 499 593 50 153 61 232 60 419 -1 416 -129 721 -418 997 -124
119 -248 204 -411 283 -262 127 -457 170 -860 190 -546 28 -861 -41 -1374
-302 l-195 -99 -74 74 -73 73 65 195 c106 318 182 621 231 921 14 84 25 156
25 160 0 15 22 7 233 -83 246 -105 540 -252 749 -374 l148 -86 95 83 96 83
-37 30 c-178 145 -484 343 -722 468 l-136 71 124 18 c141 20 166 25 130 27
-14 0 -81 -8 -149 -18 l-124 -18 -84 39 c-45 21 -128 58 -183 82 l-100 43 -4
229 c-2 126 -9 277 -16 336 l-11 107 381 733 c209 403 384 736 388 740 12 12
193 -145 327 -283 256 -264 416 -526 491 -804 23 -86 27 -120 28 -245 0 -111
-4 -160 -18 -209 -73 -264 -271 -474 -589 -627 -62 -29 -108 -53 -104 -54 13
0 220 86 289 121 177 89 332 226 386 341 45 95 56 164 55 343 0 173 -18 287
-69 441 -59 181 -185 406 -321 574 -99 123 -327 333 -462 426 -1 2 33 72 77
156 409 783 1502 2891 1500 2893 -2 1 -37 -41 -78 -94z m-3664 -3217 c634
-209 1011 -697 1094 -1414 l8 -75 -58 -110 c-88 -164 -62 -152 -225 -105 -661
191 -1327 292 -2030 309 l-269 6 -23 75 c-39 128 -56 238 -56 360 1 240 66
406 225 575 151 160 346 267 620 339 147 38 328 66 328 50 0 -3 -9 -49 -19
-102 -19 -95 -41 -282 -41 -349 l0 -34 93 62 c50 34 95 65 99 68 5 4 -4 52
-18 106 -14 55 -28 137 -31 182 l-6 82 59 4 c32 2 77 4 100 5 25 1 84 -12 150
-34z m-1622 -1727 c148 -222 392 -444 557 -507 l55 -21 109 67 c107 68 108 68
84 84 -138 89 -383 297 -449 380 l-32 40 74 -6 c588 -47 1026 -114 1524 -234
173 -42 484 -127 492 -134 1 -2 -8 -22 -20 -45 l-23 -43 -130 6 c-71 4 -152 8
-180 11 l-50 4 45 -9 c25 -6 100 -14 168 -19 68 -5 125 -11 128 -13 4 -4 -231
-446 -427 -805 l-39 -71 -118 50 c-243 103 -608 209 -866 252 -242 41 -336 48
-641 53 l-310 4 -80 86 c-111 119 -214 248 -300 378 -92 137 -112 182 -121
270 -11 117 -35 134 -134 95 -70 -28 -79 -19 -48 47 25 51 145 89 362 113 54
6 104 14 112 18 7 4 60 6 118 4 l106 -3 34 -52z m2732 -64 c-10 -10 -19 5 -10
18 6 11 8 11 12 0 2 -7 1 -15 -2 -18z m-92 -339 c30 -13 29 -13 -36 -14 -38 0
-68 2 -68 4 0 2 3 12 6 21 7 18 41 14 98 -11z m70 -71 c-14 -118 -69 -427 -99
-559 -63 -269 -74 -303 -105 -319 -15 -8 -61 -57 -103 -109 l-77 -95 -97 58
c-54 32 -120 70 -146 85 -27 15 -47 33 -45 39 2 7 111 220 243 474 l240 462
45 4 c25 2 69 4 97 5 l53 2 -6 -47z m-2309 -583 c281 -24 536 -70 797 -144
256 -73 626 -222 615 -248 -3 -7 -97 -184 -210 -393 l-205 -379 -54 -19 c-517
-179 -1145 -162 -1763 46 -125 42 -131 45 -167 92 -53 70 -132 226 -167 330
-79 235 -76 413 9 545 58 91 76 99 288 135 l93 16 87 -78 c321 -290 712 -540
862 -551 l57 -4 71 100 c40 54 72 101 72 103 0 2 -19 3 -42 1 -39 -3 -57 5
-174 75 -174 105 -314 206 -470 340 l-49 43 115 0 c63 0 169 -5 235 -10z
m2063 -503 c-11 -37 -24 -67 -28 -67 -4 0 -18 9 -31 19 l-24 20 49 50 c28 28
51 49 52 48 2 -1 -6 -33 -18 -70z m-393 -14 c53 -32 108 -68 123 -80 l27 -22
-65 -66 c-82 -84 -223 -204 -293 -249 -82 -52 -210 -121 -206 -110 18 46 305
584 311 584 5 0 51 -26 103 -57z m261 -174 c44 -34 53 -46 48 -63 -15 -49
-155 -391 -209 -511 -75 -166 -208 -428 -286 -561 l-61 -104 -216 0 c-233 1
-224 -2 -157 45 13 9 -1 7 -43 -6 -88 -26 -207 -37 -200 -18 3 8 91 178 196
379 l190 365 88 48 c145 80 289 190 493 378 52 49 97 89 99 89 1 0 28 -19 58
-41z m344 -312 c-44 -34 -130 -97 -133 -97 -3 0 11 38 31 85 l36 85 35 -35
c19 -19 33 -36 31 -38z m-3034 -257 c188 -65 497 -123 740 -139 279 -19 588
15 843 92 61 19 111 33 111 31 0 -4 -341 -637 -347 -643 -7 -9 -189 19 -283
43 -307 80 -665 247 -892 418 -74 56 -249 217 -237 218 3 0 32 -9 65 -20z
m1952 -1005 c1 -1 0 -10 -4 -19 -5 -14 -36 -16 -295 -16 -159 0 -289 2 -289 4
0 2 11 23 25 48 l25 44 267 -30 c148 -16 269 -30 271 -31z m255 -32 c-7 -2
-19 -2 -25 0 -7 3 -2 5 12 5 14 0 19 -2 13 -5z"/>
<path d="M4850 7515 c-24 -25 -41 -45 -38 -45 4 0 69 -16 145 -35 136 -34 432
-89 440 -81 2 2 -27 11 -64 20 -125 31 -244 79 -362 146 -39 22 -72 40 -74 40
-1 0 -23 -20 -47 -45z"/>
<path d="M6298 10163 c7 -3 16 -2 19 1 4 3 -2 6 -13 5 -11 0 -14 -3 -6 -6z"/>
<path d="M7213 7433 c9 -2 23 -2 30 0 6 3 -1 5 -18 5 -16 0 -22 -2 -12 -5z"/>
</g>
</svg>
